<svg xmlns="http://www.w3.org/2000/svg" xmlns:xlink="http://www.w3.org/1999/xlink" version="1.1" x="0px" y="0px" viewBox="0 0 100 125" style="enable-background:new 0 0 100 100;" xml:space="preserve"><g><path d="M25,0C11.192,0,0,11.191,0,25s11.192,25,25,25c13.809,0,25-11.191,25-25S38.809,0,25,0z M25,45C13.975,45,5,36.025,5,25   S13.975,5,25,5c11.025,0,20,8.975,20,20S36.025,45,25,45z M25,7.5v5c-6.892,0-12.5,5.605-12.5,12.5h-5   C7.5,15.352,15.352,7.5,25,7.5z M75,40c-13.809,0-25,11.191-25,25s11.191,25,25,25s25-11.191,25-25S88.809,40,75,40z M75,85   c-11.025,0-20-8.975-20-20s8.975-20,20-20s20,8.975,20,20S86.025,85,75,85z M75,47.5v5c-6.893,0-12.5,5.605-12.5,12.5h-5   C57.5,55.352,65.352,47.5,75,47.5z M20,60C8.955,60,0,68.955,0,80s8.955,20,20,20c11.044,0,20-8.955,20-20S31.045,60,20,60z M20,95   c-8.271,0-15-6.729-15-15s6.729-15,15-15c8.271,0,15,6.729,15,15S28.271,95,20,95z M20,67.5v5c-4.136,0-7.5,3.364-7.5,7.5h-5   C7.5,73.105,13.108,67.5,20,67.5z M77.5,15c0,0-5-5-5-10c0-2.764,2.236-5,5-5s5,2.236,5,5C82.5,10,77.5,15,77.5,15z M77.5,20   c0,0,5,5,5,10c0,2.764-2.236,5-5,5s-5-2.236-5-5C72.5,25,77.5,20,77.5,20z M80,17.5c0,0,5-5,10-5c2.764,0,5,2.236,5,5s-2.236,5-5,5   C85,22.5,80,17.5,80,17.5z M60,17.5c0-2.764,2.236-5,5-5c5,0,10,5,10,5s-5,5-10,5C62.236,22.5,60,20.264,60,17.5z"/></g></svg>